<?xml version="1.0" encoding="utf-8"?>
<!-- Generator: Adobe Illustrator 19.0.0, SVG Export Plug-In . SVG Version: 6.00 Build 0)  -->
<svg version="1.1" id="Layer_1" xmlns="http://www.w3.org/2000/svg" xmlns:xlink="http://www.w3.org/1999/xlink" x="0px" y="0px"
	 viewBox="0 0 1920 1080" style="enable-background:new 0 0 1920 1080;" xml:space="preserve">
<g id="XMLID_44_">
	<path id="XMLID_59_" d="M1068.6,527.1l-18.6-0.3l18.6-0.3c20.1-0.7,26.2-2.5,26.2-7.3c0-4.3-5.7-6.6-19.2-7.5
		c-8.7-0.6-11.2-0.6-62.3-0.7H903.9v13.3v5.2v13.3h109.5c51.1,0,53.6-0.1,62.3-0.7c13.5-0.9,19.2-3.1,19.2-7.5
		C1094.8,529.6,1088.7,527.8,1068.6,527.1z M948,518.3h65.5c27.6,0,27.6,0,31,0.4c3.9,0.3,5.5,1,5.5,2.3c0,1.4-2.1,2.1-7.3,2.3
		c-2.3,0.1-2.3,0.1-29.2,0.1H948V518.3z M1044.4,535c-3.4,0.3-3.4,0.3-31,0.4H948v-5.1h65.5c26.9,0,26.9,0,29.2,0.1
		c5.2,0.2,7.3,0.9,7.3,2.3C1049.9,534,1048.3,534.7,1044.4,535z"/>
	<path id="XMLID_53_" d="M328.2,511.7v22.7h108.1v7.8H279.6v-30.4H328.2z"/>
	<path id="XMLID_51_" d="M489.7,511.7v30.4h-48.6v-30.4H489.7z"/>
	<path id="XMLID_47_" d="M738.2,511.7v11h25.3l60.2-11.2H902l-95.3,15.1l95.3,15.5h-70.2l-68.2-11.6h-25.3v11.6h-46.3v-30.4H738.2z"
		/>
	<path id="XMLID_40_" d="M1292.3,536.4h-29.6v5.7h-44v-5.7h-121.3v-11.6l90.3-13.1h75v17.9h29.6V536.4z M1218.6,518.7h-9.3
		l-70.5,9.7v1.2h79.8V518.7z"/>
	<path id="XMLID_38_" d="M1343.1,511.7v30.4h-48.6v-30.4H1343.1z"/>
	<path id="XMLID_36_" d="M1531.5,511.7v7.8h-67.7v22.7h-48.6v-22.7h-67.7v-7.8H1531.5z"/>
	<g id="XMLID_29_">
		<path id="XMLID_34_" d="M548.3,519.5c4.6-0.7,13-0.9,42-0.9c29.2,0,42.6,0.3,46.1,0.9c2.7,0.5,3.2,0.9,3.6,2.9h46.3v-1.5
			c0-4.9-4.6-7.1-17.6-8.4c-10.5-1.1-24.6-1.4-65.2-1.4c-79.6,0-96.2,0.8-104.5,4.9c-3.4,1.7-4.3,4.2-4.3,11l46.3,0
			C541,522.1,542.8,520.4,548.3,519.5z"/>
		<path id="XMLID_35_" d="M499,537.8c8.2,4.1,24.9,4.9,104.5,4.9c40.6,0,54.7-0.3,65.2-1.4c13-1.3,17.6-3.6,17.6-8.4v-1.5H640
			c-0.5,2-0.9,2.4-3.6,2.9c-3.4,0.6-16.9,0.9-46.1,0.9c-29,0-37.4-0.2-42-0.9c-5.5-0.9-7.3-2.7-7.3-7.3l-46.3,0
			C494.7,533.6,495.6,536.1,499,537.8z"/>
	</g>
	<g id="XMLID_16_">
		<path id="XMLID_27_" d="M136,519.5c4.6-0.7,13-0.9,42-0.9c29.2,0,42.6,0.3,46.1,0.9c2.7,0.5,3.2,0.9,3.6,2.9H274v-1.5
			c0-4.9-4.6-7.1-17.6-8.4c-10.5-1.1-24.6-1.4-65.2-1.4c-79.6,0-96.2,0.8-104.5,4.9c-3.4,1.7-4.3,4.2-4.3,11l46.3,0
			C128.7,522.2,130.5,520.5,136,519.5z"/>
		<path id="XMLID_28_" d="M86.7,537.9c8.2,4.1,24.9,4.9,104.5,4.9c40.6,0,54.7-0.3,65.2-1.4c13-1.3,17.6-3.6,17.6-8.4v-1.5h-46.3
			c-0.5,2-0.9,2.4-3.6,2.9c-3.4,0.6-16.9,0.9-46.1,0.9c-29,0-37.4-0.2-42-0.9c-5.5-0.9-7.3-2.7-7.3-7.3l-46.3,0
			C82.4,533.7,83.3,536.2,86.7,537.9z"/>
	</g>
</g>
</svg>
