<?xml version="1.0" encoding="utf-8"?>
<!-- Generator: Adobe Illustrator 19.0.0, SVG Export Plug-In . SVG Version: 6.00 Build 0)  -->
<svg version="1.1" id="Capa_1" xmlns="http://www.w3.org/2000/svg" xmlns:xlink="http://www.w3.org/1999/xlink" x="0px" y="0px"
	 viewBox="-1243 1245 512 512" style="enable-background:new -1243 1245 512 512;" xml:space="preserve">
<style type="text/css">
	.st0{fill:#FFFFFF;}
	.st1{fill:#FFB74D;}
</style>
<path class="st0" d="M-827,1405c-17.7,0-32,14.3-32,32v-21.3c0-17.7-14.3-32-32-32s-32,14.3-32,32v-21.3c0-17.7-14.3-32-32-32
	s-32,14.3-32,32v-106.7c0-17.7-14.3-32-32-32s-32,14.3-32,32v266.7l-74.1-37c-7.4-3.7-15.6-5.6-23.9-5.6
	c-16.6,0-30.1,13.5-30.1,30.1v0.1c0,8,3.2,15.7,8.8,21.3l137.9,137.9c29,29,68.3,45.2,109.2,45.2l0,0c70.7,0,128-57.3,128-128V1437
	C-795,1419.3-809.3,1405-827,1405z"/>
<g>
	<path class="st1" d="M-976.3,1370.7v119.7c0,5.9-4.8,10.7-10.7,10.7v-106.7C-987,1385.3-983.1,1376.6-976.3,1370.7z"/>
	<path class="st1" d="M-912.3,1392v98.3c0,5.9-4.8,10.7-10.7,10.7v-85.3C-923,1406.6-919.1,1398-912.3,1392z"/>
	<path class="st1" d="M-848.3,1413.3v77c0,5.9-4.8,10.7-10.7,10.7v-64C-859,1427.9-855.1,1419.3-848.3,1413.3z"/>
</g>
<path d="M-923,1757c-43.8,0.1-85.9-17.3-116.8-48.4l-137.9-137.9c-15.9-16-15.9-41.8,0-57.7c7.6-7.6,18-11.9,28.8-12
	c9.9,0,19.7,2.3,28.6,6.7l58.6,29.3v-249.4c0-23.6,19.1-42.7,42.7-42.7c23.6,0,42.7,19.1,42.7,42.7v69.7
	c20.4-11.8,46.5-4.8,58.3,15.6c1.3,2.3,2.4,4.7,3.3,7.2c19.6-13.1,46.1-7.9,59.2,11.7c2,3,3.6,6.2,4.8,9.6
	c19.6-13.1,46.1-7.8,59.2,11.7c4.7,7,7.2,15.3,7.2,23.7v181.3C-784.4,1694.9-846.5,1756.9-923,1757z M-1148.9,1522.3
	c-10.8,0-19.5,8.8-19.4,19.6c0,5.1,2.1,10.1,5.7,13.7l137.9,137.9c26.9,27.1,63.5,42.2,101.7,42.1c64.8-0.1,117.3-52.6,117.3-117.3
	V1437c0-11.8-9.6-21.3-21.3-21.3s-21.3,9.6-21.3,21.3v53.3c0,5.9-4.8,10.7-10.7,10.7s-10.7-4.8-10.7-10.7v-74.7
	c0-11.8-9.6-21.3-21.3-21.3s-21.3,9.6-21.3,21.3v74.7c0,5.9-4.8,10.7-10.7,10.7s-10.7-4.8-10.7-10.7v-96c0-11.8-9.6-21.3-21.3-21.3
	s-21.3,9.6-21.3,21.3v96c0,5.9-4.8,10.7-10.7,10.7s-10.7-4.8-10.7-10.7v-202.7c0-11.8-9.6-21.3-21.3-21.3s-21.3,9.6-21.3,21.3v266.7
	c0,5.9-4.8,10.7-10.7,10.7c-1.7,0-3.3-0.4-4.8-1.1l-74.2-37C-1135.8,1523.9-1142.3,1522.4-1148.9,1522.3z"/>
</svg>
